<?xml version="1.0" encoding="iso-8859-1"?>
<!-- Generator: Adobe Illustrator 19.1.0, SVG Export Plug-In . SVG Version: 6.00 Build 0)  -->
<svg version="1.1" id="Capa_1" xmlns="http://www.w3.org/2000/svg" xmlns:xlink="http://www.w3.org/1999/xlink" x="0px" y="0px"
	 viewBox="0 0 405.132 405.132" style="enable-background:new 0 0 405.132 405.132;" xml:space="preserve">
<g>
	<g>
		<path style="fill:#231F20;" d="M326.03,405.132H79.102C52.379,405.132,31,383.753,31,357.029V185.997
			c0-8.552,7.483-16.034,16.034-16.034s16.034,7.483,16.034,16.034v172.101c0,8.552,7.483,16.034,16.034,16.034H326.03
			c8.552,0,16.034-7.483,16.034-16.034V185.997c0-8.552,7.483-16.034,16.034-16.034c8.552,0,16.034,7.483,16.034,16.034v172.101
			C374.132,383.753,352.753,405.132,326.03,405.132z"/>
		<g>
			<path style="fill:#231F20;" d="M110.102,125.067c-4.276,0-8.552-1.069-11.758-4.276c-6.414-6.414-6.414-16.034,0-22.448
				l92.999-92.999c6.414-6.414,16.034-6.414,22.448,0l92.999,92.999c6.414,6.414,6.414,16.034,0,22.448
				c-6.414,6.414-16.034,6.414-22.448,0l-81.24-81.24l-81.24,81.24C118.654,123.998,114.378,125.067,110.102,125.067z"/>
			<path style="fill:#231F20;" d="M202.031,304.651c-8.552,0-16.034-7.483-16.034-16.034V16.034C185.997,7.483,193.48,0,202.031,0
				s16.034,7.483,16.034,16.034v271.513C218.066,297.168,211.652,304.651,202.031,304.651z"/>
		</g>
	</g>
</g>
<g>
</g>
<g>
</g>
<g>
</g>
<g>
</g>
<g>
</g>
<g>
</g>
<g>
</g>
<g>
</g>
<g>
</g>
<g>
</g>
<g>
</g>
<g>
</g>
<g>
</g>
<g>
</g>
<g>
</g>
</svg>
